<svg width="160" height="224" version="1.1" viewBox="0 0 334 454" xmlns="http://www.w3.org/2000/svg">
	<script>
		document.activeElement.style.fill = document.defaultView.frameElement.style.fill;
	</script>
	<g>
		<path d="m167 0.22c-92.1 0-167 74.7-167 167 0 160 98.5 243 156 253-3.41 5.31-6.5 11-7.41 15.1-2.18 10-4.64 18.3 18.5 18.5 22.4 0.178 20.7-8.53 18.5-18.5-0.875-4.07-3.99-9.72-7.42-15.1 57-9.9 156-92.8 156-253-1e-5 -92.1-74.7-167-167-167z"/>
		<path d="m101 40.5c-13.1 6-25 14.3-35.2 24.6l13.9 12.6c8.65-8.39 18.7-15.3 29.8-20.4zm13 25.7c-10 4.5-19.1 10.7-27 18.2l16.3 14.9c5.98-5.68 12.9-10.3 20.4-13.6zm-53.8 5.02c-9.15 10.5-16.4 22.6-21.5 35.6l16.9 6.4c4.48-10.9 10.7-20.8 18.4-29.5zm21.1 19.2c-6.81 7.77-12.4 16.7-16.4 26.4l21.3 8.06c2.78-7.06 6.67-13.6 11.5-19.5z" fill="#fff" fill-opacity=".8"/>
	</g>
</svg>
